<svg width="221" height="179" viewBox="0 0 221 179" fill="none" xmlns="http://www.w3.org/2000/svg">
<g clip-path="url(#clip0_108_16183)">
<path d="M87.3994 114.55C85.1994 118.24 82.8194 121.94 80.2994 125.55C73.8294 134.85 66.5194 143.55 59.6994 149.77C36.5594 170.86 28.8494 149.04 31.0194 140.13C32.7494 132.99 51.6194 106.57 62.4794 91.9101C65.1994 88.2401 67.4094 85.3201 68.7294 83.6101C75.3494 75.0701 83.5594 70.6101 94.5894 73.9701C104.589 77.0001 98.6794 95.5301 87.3994 114.55Z" fill="#C3DCF8"/>
<path d="M87.3994 114.55C85.5777 112.962 83.9041 111.211 82.3994 109.32C76.5894 102.08 72.9194 94.1001 62.3994 91.9101C65.1194 88.2401 67.3294 85.3201 68.6494 83.6101C75.2694 75.0701 83.4794 70.6101 94.5094 73.9701C104.589 77.0001 98.6794 95.5301 87.3994 114.55Z" fill="#D0E5F7"/>
<path d="M198.68 110.71C198.9 109.02 198.8 106.63 193.95 104.06L192.34 111.34C192.34 111.34 198.3 113.67 198.68 110.71Z" fill="#A7CAF0"/>
<path d="M176 103.21C177.56 95.8202 178.24 95.1402 178 91.5402C177.76 87.9402 177.32 83.6702 183.25 76.4702C189.18 69.2702 192.68 63.6402 193.85 64.2202C195.02 64.8002 194.24 70.0002 192 75.0002C192 75.0002 207.75 66.0002 211.06 64.7402C214.37 63.4802 212.23 69.5002 205.62 72.7402C205.62 72.7402 216.02 66.4602 218.55 66.9702C221.08 67.4802 216.41 71.1502 212.81 73.5002C212.81 73.5002 219.64 69.2202 220.98 70.6302C222.32 72.0402 218.57 75.0302 215.44 76.9202C215.44 76.9202 219.52 74.7802 220.2 75.8502C220.88 76.9202 220.2 78.0902 216.2 80.6102C212.2 83.1302 203.47 87.4202 196.76 95.1002L195 114C195 114 179.27 116.63 176 103.21Z" fill="#FEBD9D"/>
<path d="M185.689 73.4502C190.149 67.7702 192.849 63.7202 193.849 64.2202C195.019 64.8002 194.239 69.9702 191.999 74.9702C191.999 74.9702 207.749 65.9702 211.059 64.7102C214.369 63.4502 212.229 69.4702 205.619 72.7102C205.619 72.7102 216.019 66.4302 218.549 66.9402C221.079 67.4502 216.409 71.1202 212.809 73.4702C212.809 73.4702 219.639 69.1902 220.979 70.6002C222.319 72.0102 218.569 75.0002 215.439 76.8902C215.439 76.8902 219.519 74.7502 220.199 75.8202C220.879 76.8902 220.199 78.0602 216.199 80.5802" stroke="#EF8A66" stroke-width="0.75" stroke-linecap="round" stroke-linejoin="round"/>
<path d="M193.17 87.5502C193.85 82.2102 197.42 80.4302 200.43 79.6602" stroke="#EF8A66" stroke-width="0.75" stroke-linecap="round" stroke-linejoin="round"/>
<path d="M200.14 74.3801C204.44 74.5801 208.94 78.5401 209.24 80.0001" stroke="#EF8A66" stroke-width="0.75" stroke-linecap="round" stroke-linejoin="round"/>
<path d="M202.27 74.7602C202.33 74.7602 208.17 71.1602 208.17 71.1602" stroke="#EF8A66" stroke-width="0.75" stroke-linecap="round" stroke-linejoin="round"/>
<path d="M213.89 72.7202L206.55 76.9802" stroke="#EF8A66" stroke-width="0.75" stroke-linecap="round" stroke-linejoin="round"/>
<path d="M216.289 76.3301L210.729 79.4401" stroke="#EF8A66" stroke-width="0.75" stroke-linecap="round" stroke-linejoin="round"/>
<path d="M163 174.68C170.45 182.2 184.68 177.63 189.73 157.68C194.78 137.73 198.73 110.68 198.73 110.68C190.44 108.856 182.704 105.085 176.16 99.6802C168.87 119.45 153.31 164.92 163 174.68Z" fill="#C3DCF8"/>
<path d="M176.11 99.7002C171.3 112.82 162.81 137.3 160.5 155.11" stroke="#83ADDF" stroke-width="0.75" stroke-linecap="round" stroke-linejoin="round"/>
<path d="M40.5597 158.89C50.2744 158.89 58.1497 151.838 58.1497 143.14C58.1497 134.442 50.2744 127.39 40.5597 127.39C30.845 127.39 22.9697 134.442 22.9697 143.14C22.9697 151.838 30.845 158.89 40.5597 158.89Z" fill="#C3DCF8"/>
<path d="M152.35 82.05C151.702 82.4468 151.034 82.8106 150.35 83.14C139.46 88.37 133.64 86.85 132.55 81.7C131.46 76.55 120.06 80.44 119.39 71.33C118.72 62.22 122.76 59.27 122 54.62C122 54.62 122.53 53.42 123.35 52.01C125.05 49.01 128.03 45.16 130.25 49.09C133.54 54.91 135.58 54.29 141.65 54.97C147.72 55.65 150.51 59.86 148.65 62.9C146.39 66.59 147.59 68.19 154.22 68.8C160.18 69.36 161.09 76.81 152.35 82.05Z" fill="#DD6819"/>
<path d="M152.35 82.05C151.702 82.4468 151.034 82.8106 150.35 83.14C139.46 88.37 133.64 86.85 132.55 81.7C131.46 76.55 120.06 80.44 119.39 71.33C118.72 62.22 122.76 59.27 122 54.62C122 54.62 122.53 53.42 123.35 52.01C131.35 54.47 133.62 58.66 132.84 62.29C131.84 66.92 135.91 72.99 146.02 72.16C151.1 71.73 152.36 76.87 152.35 82.05Z" fill="#CC5E0D"/>
<path d="M154 179H144.5H133H104H102.429H96C96 179 89.1894 160.74 87.2194 152.23C85.2494 143.72 80.4794 136.12 80.2994 127.14C80.2994 126.64 80.2994 126.14 80.2994 125.64C80.3794 119.81 81.5994 114.23 82.4394 109.41C82.8153 107.427 83.0691 105.424 83.1994 103.41C83.4794 97.24 78.6094 90.31 78.1394 86.01C77.6694 81.71 78.1394 72.62 89.4694 73.58C91.3194 73.73 93.0194 73.87 94.5894 74.03C96.1594 74.19 97.8494 74.36 99.2794 74.54L100.779 74.76C102.784 75.0318 104.766 75.4496 106.709 76.01C108.269 76.4571 109.772 77.0812 111.189 77.87C115.579 80.32 125.629 77.19 126.859 76.79H126.979C129.159 76.65 131.089 76.5 132.809 76.34C134.529 76.18 135.969 76.08 137.259 75.94C141.079 75.55 143.329 75.21 144.499 75.07C145.189 75.07 146.179 84.46 147.249 97.07C147.819 103.92 148.409 111.74 148.989 119.5C150.179 135.66 151.279 151.65 151.929 158.5C152.029 159.61 152.129 160.5 152.209 161.08C153.199 168.33 157 173 154 179Z" fill="#C3DCF8"/>
<path d="M147.26 97C144.094 98.942 141.108 101.164 138.34 103.64C127.18 113.43 119.17 124.79 102.34 121.54C96.8247 120.608 91.6692 118.188 87.4296 114.54C85.6079 112.952 83.9343 111.201 82.4296 109.31C82.8056 107.327 83.0594 105.324 83.1896 103.31C83.4696 97.14 78.5996 90.21 78.1296 85.91C77.6596 81.61 78.1296 72.52 89.4596 73.48C91.3096 73.63 93.0096 73.77 94.5796 73.93C96.1496 74.09 97.8396 74.26 99.2696 74.44C101.781 74.7345 104.265 75.2261 106.7 75.91C108.259 76.3572 109.762 76.9812 111.18 77.77C115.57 80.22 125.62 77.09 126.85 76.69H126.97C131.25 76.41 134.62 76.1 137.25 75.84C141.07 75.45 143.32 75.11 144.49 74.97C145.2 75 146.19 84.36 147.26 97Z" fill="#D0E5F7"/>
<path d="M121.369 148C122.72 157.919 124.688 167.745 127.259 177.42L102.429 173.42H102.309C102.309 173.42 101.609 157.42 96.8894 142.79C94.4351 135.06 93.4183 126.946 93.8894 118.85C94.3382 112.09 95.4536 105.391 97.2194 98.85C99.093 90.9407 100.277 82.8839 100.759 74.77C101.899 74.94 102.959 75.12 103.939 75.33L104.619 75.47C105.349 75.63 106.039 75.82 106.689 76.02C108.249 76.4672 109.752 77.0912 111.169 77.88C115.559 80.33 125.609 77.2 126.839 76.8H126.959L130.759 76.53L131.459 76.47L132.789 76.35C130.909 82.13 123.129 106.08 120.589 118.71C120.319 120.11 120.099 121.36 119.959 122.43C119.239 128.19 119.999 138 121.369 148Z" fill="white"/>
<path d="M132.81 76.24C130.93 82.02 123.15 105.97 120.61 118.6C115.105 121.87 108.559 122.915 102.31 121.52C99.4048 120.989 96.581 120.081 93.9102 118.82C94.359 112.06 95.4744 105.361 97.2402 98.82C99.1138 90.9107 100.298 82.8539 100.78 74.74C101.92 74.91 102.98 75.09 103.96 75.3L104.64 75.44C105.37 75.6 106.06 75.79 106.71 75.99C108.27 76.4371 109.773 77.0612 111.19 77.85C115.58 80.3 125.63 77.17 126.86 76.77H126.98L130.78 76.5L131.48 76.44L132.81 76.24Z" fill="#F9F9F9"/>
<path d="M131.94 105.24L137.74 118.48C136.08 121.31 125.84 139.88 121.37 148C119.99 138 119.24 128.19 119.98 122.32C121.37 111.47 130.72 82.65 132.81 76.24C134.49 76.11 135.97 75.98 137.26 75.84L139 101C137.75 101.82 131.94 105.24 131.94 105.24Z" fill="#A7CAF0"/>
<path d="M97.2394 98.78C95.1094 107.39 90.8894 124.08 96.8894 142.78C91.8693 135.462 88.2951 127.251 86.3594 118.59L92.8994 104.07L89.5794 99.72C89.5794 99.72 93.1894 89.72 99.2794 74.5L100.779 74.72C100.296 82.8272 99.1119 90.8773 97.2394 98.78Z" fill="#A7CAF0"/>
<path d="M130 75.1099C132.42 74.3799 134.44 75.1099 134.39 76.1099C134.27 78.7899 129.61 94.9099 127.6 95.7299C127.23 95.8799 124.92 88.4499 122.31 87.5499C119.7 86.6499 114.84 87.8899 114.95 87.8299C115.06 87.7699 124.79 73.4499 130 75.1099Z" fill="#683F1D"/>
<path d="M106.86 74.55C110.97 80.1 110.42 84.25 108.86 84.44C107.3 84.63 105.53 84.5 103.72 86.39C101.91 88.28 99.0396 91.39 98.8296 91C97.7496 89 99.5696 76 100.37 74.65C101.41 73 105.75 73.05 106.86 74.55Z" fill="#683F1D"/>
<path d="M110 94C109.5 104.56 107.05 108.61 105.58 115.13C104.11 121.65 105.4 130.53 107.79 140.77C110.18 151.01 110.05 156.51 110 157.63C109.95 158.75 107.59 165.16 112.76 167.63" stroke="#DDDDDD" stroke-linecap="round" stroke-linejoin="round"/>
<path d="M130 75.1C130 75.1 114.11 91.34 110.4 88.92C106.69 86.5 105.24 77.31 105.66 74.21C105.8 73.21 106.08 71.31 106.39 69.21C107.04 64.98 107.85 59.84 107.99 58.74C108.43 49.74 123.18 41.98 127.4 51.96C126.788 59.7685 127.671 67.622 130 75.1Z" fill="#FEBD9D"/>
<path d="M106.41 69.2101C107.06 64.9801 107.87 59.8401 108.01 58.7401L117.62 55.3901C118.63 63.5901 114.46 68.2601 106.41 69.2101Z" fill="#F4A789"/>
<path d="M80.2998 125.55C80.3798 119.72 81.5998 114.14 82.4398 109.32C82.8158 107.338 83.0696 105.334 83.1998 103.32C83.3298 100.32 82.2798 97.2101 81.0998 94.3201" stroke="#83ADDF" stroke-width="0.75" stroke-linecap="round" stroke-linejoin="round"/>
<path d="M130.509 178.1C124.389 176.63 103.899 173.68 103.899 173.68" stroke="#83ADDF" stroke-width="0.75" stroke-linecap="round" stroke-linejoin="round"/>
<path d="M175.82 176.73C164.67 182.45 157 170.09 151.94 158.44C150.94 156.09 150 153.78 149.19 151.65C145.73 142.65 140.19 121.47 138.34 103.65C136.86 89.1401 137.85 76.8301 144.5 75.0001C152.41 72.8401 161.19 76.3301 166.35 91.0701C167.372 94.069 168.181 97.1367 168.77 100.25C173.52 124.61 187.47 170.75 175.82 176.73Z" fill="#C3DCF8"/>
<path d="M151.94 158.44C150.94 156.09 150 153.78 149.19 151.65C146.5 144.65 142.52 130.24 140.04 115.8" stroke="#83ADDF" stroke-width="0.75" stroke-linecap="round" stroke-linejoin="round"/>
<path d="M166.36 91C159.604 91.3931 153.047 93.4324 147.26 96.94C144.094 98.882 141.108 101.104 138.34 103.58C136.86 89.07 137.85 76.76 144.5 74.93C152.42 72.81 161.2 76.3 166.36 91Z" fill="#D0E5F7"/>
<path d="M131.63 43.3601C127.81 50.7001 98.4196 42.3601 98.4196 42.3601C93.6496 40.9701 91.2596 39.0801 91.4196 36.2001C91.5796 33.32 96.0696 33.2001 94.9096 30.4401C94.318 29.1004 93.979 27.6629 93.9096 26.2001C93.8196 23.5701 94.8196 20.5301 98.6796 18.0801C105.48 13.7601 114.82 19.5601 114.82 19.5601C114.82 19.5601 119.09 15.9901 126.82 19.9701C130.74 21.9701 132.89 26.0701 133.56 30.5701C134.22 34.9305 133.547 39.3887 131.63 43.3601Z" fill="#DD6819"/>
<path d="M131.63 43.36C127.81 50.7 98.4196 42.36 98.4196 42.36C93.6496 40.97 91.2596 39.08 91.4196 36.2C91.5796 33.32 96.0696 33.2 94.9096 30.44C94.318 29.1003 93.979 27.6629 93.9096 26.2C100.24 19.53 114.71 18.7 116.27 24.94C118.04 32.02 121.41 43.29 133.57 30.57C134.227 34.9315 133.551 39.3897 131.63 43.36Z" fill="#CC5E0D"/>
<path d="M113.81 23.35C119.34 19.6 124.49 22.43 125.93 26.57C128.02 32.57 120.93 38.86 128.02 44.22" stroke="#FF79A0" stroke-width="0.75" stroke-linecap="round" stroke-linejoin="round"/>
<path d="M97.6494 27.3101C98.1494 21.6901 106.829 16.3101 114.849 19.5301" stroke="#FF79A0" stroke-width="0.75" stroke-linecap="round" stroke-linejoin="round"/>
<path d="M127.42 51.9999C127.42 51.9999 119.42 59.8099 110.6 62.3299C101.98 64.82 94.6 59.6199 95.31 47.2099C95.31 47.0099 95.31 46.7999 95.31 46.5999C95.43 45.0899 95.61 43.5999 95.85 42.1899C97.7 31.4999 103.26 23.7599 112.49 26.6499C115.32 27.5299 112.67 37.5299 114.57 42.0199C114.684 42.2996 114.824 42.5675 114.99 42.8199C115.64 43.7294 116.493 44.4756 117.48 44.9999C120.61 46.7199 124.86 46.3399 126.24 43.6999C128.24 39.8699 133.67 38.0299 135.56 44.4499C136.93 49.0599 131.89 53.2299 127.42 51.9999Z" fill="#FEBD9D"/>
<path d="M117.48 45C116.59 46.0601 115.423 46.8527 114.11 47.29C111.52 48.29 109.02 47.96 108.53 46.64C108.04 45.32 109.76 43.48 112.35 42.53C113.074 42.258 113.83 42.0799 114.6 42C114.713 42.2797 114.854 42.5476 115.02 42.8C115.659 43.7132 116.501 44.4661 117.48 45Z" fill="#F4AF90"/>
<path d="M97.9998 46.58C97.5498 47.24 96.5498 47.42 95.3398 47.17C95.3398 46.97 95.3398 46.76 95.3398 46.56C95.4598 45.05 95.6399 43.56 95.8799 42.15C97.7499 43.65 98.6798 45.52 97.9998 46.58Z" fill="#F4AF90"/>
<path d="M99.5996 39.5801C99.5996 39.7996 99.6647 40.0142 99.7867 40.1968C99.9086 40.3793 100.082 40.5216 100.285 40.6056C100.488 40.6896 100.711 40.7116 100.926 40.6688C101.141 40.6259 101.339 40.5202 101.494 40.365C101.65 40.2097 101.755 40.012 101.798 39.7966C101.841 39.5813 101.819 39.3581 101.735 39.1553C101.651 38.9525 101.509 38.7791 101.326 38.6572C101.144 38.5352 100.929 38.4701 100.71 38.4701C100.415 38.4701 100.133 38.587 99.9247 38.7952C99.7165 39.0034 99.5996 39.2857 99.5996 39.5801Z" fill="#683F1D"/>
<path d="M105.75 41.2599C105.748 41.4823 105.812 41.7002 105.935 41.8859C106.057 42.0716 106.232 42.2167 106.437 42.3027C106.642 42.3887 106.868 42.4118 107.086 42.3689C107.304 42.326 107.505 42.2191 107.662 42.0619C107.819 41.9046 107.926 41.7041 107.969 41.486C108.012 41.2678 107.989 41.0418 107.903 40.8367C107.817 40.6316 107.672 40.4568 107.486 40.3345C107.3 40.2122 107.082 40.148 106.86 40.1499C106.566 40.1499 106.283 40.2669 106.075 40.4751C105.867 40.6832 105.75 40.9656 105.75 41.2599Z" fill="#683F1D"/>
<path d="M127.62 47.3301C128.81 44.3301 131.43 42.9001 133.4 44.3301" stroke="#EF8A66" stroke-width="0.75" stroke-linecap="round" stroke-linejoin="round"/>
<path d="M128 46.4601C131.18 44.0301 133.38 49.4601 128.28 49.4601" stroke="#EF8A66" stroke-width="0.75" stroke-linecap="round" stroke-linejoin="round"/>
<path d="M96.6492 34.21C96.3492 35.65 102.559 37.64 103.149 34.73C103.569 32.64 96.9992 32.64 96.6492 34.21Z" fill="#DD6819"/>
<path d="M106.909 35.14C106.229 37.67 113.289 38.99 114.049 37.28C114.699 35.84 107.679 32.28 106.909 35.14Z" fill="#DD6819"/>
<path d="M100.499 46.3701C99.1194 44.2201 99.8394 42.6101 101.649 42.6101C103.859 42.6101 104.579 40.6101 104.479 37.8101" stroke="#EF8A66" stroke-width="0.75" stroke-linecap="round" stroke-linejoin="round"/>
<path d="M100.449 48.5802C103.299 48.9302 107.089 47.1702 107.089 47.1702C107.089 47.1702 106.919 52.1702 103.769 52.6002C100.619 53.0302 100.449 48.5802 100.449 48.5802Z" fill="white" stroke="#EF8A66" stroke-width="0.75" stroke-linecap="round" stroke-linejoin="round"/>
<path d="M23.3792 19.16C20.4492 17.29 17.0792 17.8099 16.0892 20.3899C14.6592 24.1299 17.3492 26.6599 20.3692 27.6399L23.3792 19.16Z" fill="#F9F9F9" stroke="#DDDDDD" stroke-linecap="round" stroke-linejoin="round"/>
<path d="M58.7695 44.22C63.5495 46.22 66.1295 47.29 66.9195 46.67C67.7095 46.05 71.3595 37.67 70.9695 36.78C70.5795 35.89 63.0995 31.78 63.0995 31.78L58.7695 44.22Z" fill="#DDDDDD" stroke="#EDEDED" stroke-linecap="round" stroke-linejoin="round"/>
<path d="M32.2295 79.8301C32.9795 76.6301 43.7095 74.0501 47.3395 73.4401V84.2101C47.3395 84.2101 35.9995 86.5701 32.2295 79.8301Z" fill="#A7CAF0"/>
<path d="M36.77 84.6102C38.62 75.7002 39.87 73.6102 39.29 72.4902C38.71 71.3702 34.96 67.7102 34.51 63.9602C34.06 60.2102 38.03 53.9602 39.43 51.9602C40.83 49.9602 42.78 48.5302 48.92 49.5002C55.06 50.4702 57.44 51.3002 57.51 54.3402C57.58 57.3802 54.8 77.8602 54.8 77.8602C54.8 77.8602 50 93.1202 36.77 84.6102Z" fill="#FEBD9D"/>
<path d="M44.3999 39.9102C43.1299 45.9102 39.7899 55.9102 38.5399 60.7802C37.2899 65.6502 38.1 68.2101 42.09 69.0201C46.08 69.8301 48.51 62.9202 49.32 58.4002C50.13 53.8802 52.32 42.6102 52.32 42.6102L44.3999 39.9102Z" fill="#F9F9F9" stroke="#DDDDDD" stroke-linecap="round" stroke-linejoin="round"/>
<path d="M26.6091 152.19C40.2091 163.43 48.7891 140.01 51.9391 119.46C53.9007 105.681 54.8565 91.7778 54.7991 77.8601C54.7991 77.8601 43.4691 81.0101 32.2291 79.8601C28.7691 96.5101 15.5291 143 26.6091 152.19Z" fill="#C3DCF8"/>
<path d="M45.1592 144C48.3492 137.14 50.6192 128 51.9392 119.44C53.9008 105.661 54.8566 91.7578 54.7992 77.8401" stroke="#83ADDF" stroke-width="0.75" stroke-linecap="round" stroke-linejoin="round"/>
<path d="M60.6299 44.4501C59.0699 45.0701 55.5298 45.2601 50.8898 44.7101C43.0348 43.7182 35.4078 41.3878 28.3398 37.8201L37.9998 16.8201C45.2646 18.9222 52.1309 22.2135 58.3199 26.5601C61.8199 29.0101 64.3199 31.3301 65.1898 32.8601C66.0598 34.3901 64.3099 43.0001 60.6299 44.4501Z" fill="#F9F9F9" stroke="#DDDDDD" stroke-linecap="round" stroke-linejoin="round"/>
<path d="M60.6297 44.4501C59.0697 45.0701 55.5296 45.2601 50.8896 44.7101C55.5396 39.4601 58.8297 33.7701 58.3197 26.6001C61.8197 29.0501 64.3197 31.3701 65.1897 32.9001C66.0597 34.4301 64.3097 43.0001 60.6297 44.4501Z" fill="#F9F9F9" stroke="#EDEDED" stroke-linecap="round" stroke-linejoin="round"/>
<path d="M30.3097 39.3401C32.8897 38.5701 40.8197 23.1201 39.6797 18.5701C38.5397 14.0201 28.8397 3.57007 28.8397 3.57007C28.8397 3.57007 16.4597 25.0201 14.1797 40.9001C14.1797 40.9301 26.5597 40.4401 30.3097 39.3401Z" fill="#DDDDDD" stroke="#EDEDED" stroke-linecap="round" stroke-linejoin="round"/>
<path d="M15.2094 10.9501L11.3994 4.68005" stroke="#DDDDDD" stroke-linecap="round" stroke-linejoin="round"/>
<path d="M0.30957 15.3201L7.02957 18.0401" stroke="#DDDDDD" stroke-linecap="round" stroke-linejoin="round"/>
<path d="M-0.480469 28.89L6.46954 27.64" stroke="#DDDDDD" stroke-linecap="round" stroke-linejoin="round"/>
<path d="M33.4299 59.3201C36.2099 57.8901 43.8699 66.3201 39.2099 66.8601C36.4499 67.2101 29.3399 61.4201 33.4299 59.3201Z" fill="#FEBD9D" stroke="#EF8A66" stroke-width="0.75" stroke-linecap="round" stroke-linejoin="round"/>
<path d="M33.9997 54.65C36.7897 53.22 44.9997 61.72 40.3897 62.29C37.6497 62.64 29.9997 56.74 33.9997 54.65Z" fill="#FEBD9D" stroke="#EF8A66" stroke-width="0.75" stroke-linecap="round" stroke-linejoin="round"/>
<path d="M35.1794 49.9001C38.1794 48.3601 47.0494 57.5001 42.0394 58.1201C39.0694 58.4901 30.7794 52.1501 35.1794 49.9001Z" fill="#FEBD9D" stroke="#EF8A66" stroke-width="0.75" stroke-linecap="round" stroke-linejoin="round"/>
<path d="M36.88 45.63C39.78 43.94 48.4499 53.39 44.0399 55.37C41.9999 56.3 32.61 48.12 36.88 45.63Z" fill="#FEBD9D" stroke="#EF8A66" stroke-width="0.75" stroke-linecap="round" stroke-linejoin="round"/>
<path d="M49.3093 55.2101C48.5993 54.2701 42.0093 51.1501 42.7793 48.6401C43.5493 46.1301 51.4293 48.7101 55.1093 49.9001C58.7893 51.0901 57.8693 53.3701 56.9493 60.7801C56.9993 60.7801 53.6993 61.0001 49.3093 55.2101Z" fill="#FEBD9D"/>
<path d="M49.3093 55.2101C48.5993 54.2701 42.0093 51.1501 42.7793 48.6401C43.5493 46.1301 51.4293 48.7101 55.1093 49.9001C58.7893 51.0901 57.8693 53.3701 56.9493 60.7801" stroke="#EF8A66" stroke-width="0.75" stroke-linecap="round" stroke-linejoin="round"/>
<line x1="22" y1="178.5" x2="199" y2="178.5" stroke="black"/>
</g>
<defs>
<clipPath id="clip0_108_16183">
<rect width="221" height="179" fill="white"/>
</clipPath>
</defs>
</svg>
