<svg width="165" height="234" viewBox="0 0 165 234" fill="none" xmlns="http://www.w3.org/2000/svg">
<path d="M165 139.494C165.02 144.04 163.868 148.513 161.656 152.482C159.365 156.559 156.001 159.927 151.93 162.22C148.28 164.289 144.156 165.375 139.961 165.373C134.765 165.328 129.711 163.669 125.495 160.626C121.28 157.584 118.111 153.307 116.426 148.385C115.792 146.595 115.354 144.742 115.117 142.857C114.979 141.742 114.909 140.618 114.907 139.494C114.907 125.21 126.129 113.623 139.961 113.623C145.13 113.672 150.158 115.316 154.361 118.33C158.563 121.345 161.735 125.583 163.444 130.468C164.479 133.364 165.005 136.418 165 139.494Z" fill="#A7CAF0"/>
<path d="M163.443 130.468C162.774 130.109 162.088 129.784 161.386 129.495C159.657 128.76 157.85 128.227 155.999 127.907C149.386 126.731 142.579 128.281 135.442 131.39C128.963 134.206 122.215 138.311 115.101 142.827C114.963 141.712 114.893 140.588 114.892 139.464C114.892 125.18 126.113 113.593 139.945 113.593C145.121 113.641 150.155 115.288 154.361 118.308C158.566 121.329 161.738 125.575 163.443 130.468Z" fill="#C3DCF8"/>
<path d="M156.322 136.461C155.925 140.573 154.227 150.115 151.878 162.22C151.496 164.205 151.13 166.257 150.673 168.362C144.883 197.664 136.273 215.839 132.577 233H36.4946L39.0129 211.581C39.0129 211.581 13.7947 205.904 8.6852 196.346C2.09449 184.017 5.69279 174.571 13.3233 161.643C18.8592 152.235 29.9161 130.85 38.5266 117.36C41.7584 112.289 44.6461 108.372 46.7557 106.552C57.9098 97.1512 69.423 100.814 79.9936 103.555C79.9936 103.555 79.9935 105.803 80.1132 109.45C80.1806 112.409 80.2778 116.297 80.4125 120.686C80.6444 128.408 80.996 137.704 81.4972 146.273C81.587 147.771 81.6767 149.269 81.774 150.767C82.5221 161.606 83.4797 170.497 84.8113 172.249C85.1479 172.691 85.6566 172.572 86.3075 171.987C88.2001 170.25 91.2897 164.452 94.731 157.044C95.7708 154.797 96.8331 152.452 97.9104 150.011C103.76 136.708 109.88 121.09 112.7 113.862C113.59 111.57 114.144 110.117 114.241 109.855C114.24 109.84 114.24 109.825 114.241 109.81L116.291 110.087L120.705 110.694C124.543 111.218 129.794 111.952 135.667 112.814C137.163 113.031 138.562 113.285 139.953 113.615C146.574 115.158 152.23 118.109 154.878 124.281C155.38 125.455 155.758 126.677 156.007 127.929C156.538 130.741 156.644 133.617 156.322 136.461Z" fill="#A7CAF0"/>
<path d="M155.999 127.937C149.386 126.761 142.578 128.311 135.441 131.42C128.963 134.236 122.215 138.341 115.101 142.857L112.856 144.288C107.448 147.741 102.45 149.494 97.8945 150.018C105.6 132.506 113.777 110.993 114.233 109.862C114.231 109.847 114.231 109.832 114.233 109.817L120.696 110.701C124.534 111.226 129.786 111.96 135.658 112.821C137.155 113.038 138.553 113.293 139.945 113.622C146.566 115.166 152.221 118.117 154.869 124.289C155.371 125.462 155.75 126.685 155.999 127.937Z" fill="#C3DCF8"/>
<path d="M39.0137 211.611C48.9409 214.263 69.319 219.064 69.319 219.064" stroke="#83ADDF" stroke-width="0.75" stroke-linecap="round" stroke-linejoin="round"/>
<path d="M50.6911 142.041L45.7013 176.16C38.6393 172.759 35.5123 171.808 32.4451 172.235C31.9589 165.531 47.018 171.71 43.9732 158.183C42.118 149.943 45.8435 143.951 50.6911 142.041Z" fill="#93BEE5"/>
<path d="M45.7012 176.159L50.6909 142.041L51.5064 136.453" stroke="#83ADDF" stroke-width="0.75" stroke-linecap="round" stroke-linejoin="round"/>
<path d="M28.75 173.253C35.5502 170.766 37.2483 171.755 60.3345 183.552" stroke="#83ADDF" stroke-width="0.75" stroke-linecap="round" stroke-linejoin="round"/>
<path d="M79.9926 103.585C79.9926 103.585 80.3591 126.806 81.4888 146.28C73.6413 141.539 68.4644 133.547 66.3099 128.611C63.123 121.338 57.0784 112.387 38.5107 117.375C41.7425 112.304 44.6302 108.387 46.7398 106.567C57.9088 97.1812 69.422 100.844 79.9926 103.585Z" fill="#C3DCF8"/>
<path d="M120.234 132.266C119.62 133.12 106.356 141.037 106.603 142.138C106.85 143.239 109.035 147.741 109.035 148.595C109.035 149.134 100.88 159.298 94.2823 166.092C90.4745 170.032 87.1829 172.834 86.3001 171.995C84.2728 170.062 102.257 123.54 108.047 108.746L114.249 109.817L120.712 110.701C120.159 121.382 120.772 131.517 120.234 132.266Z" fill="#83ADDF"/>
<path d="M114.249 109.817C114.247 109.832 114.247 109.847 114.249 109.862C113.867 111.36 104.441 148.116 94.2969 166.092C91.125 171.725 87.8857 175.515 84.826 175.83C71.8017 177.066 80.0082 103.615 80.0082 103.615C84.8409 104.702 99.5784 107.301 108.062 108.776L114.249 109.817Z" fill="white"/>
<path d="M111.803 106.582C110.374 110.844 97.4473 120.154 89.5175 115.667C84.9467 113.076 84.1088 108.312 85.3057 100.44C85.8818 96.582 86.959 91.9754 88.2981 86.515C88.9789 83.781 89.7345 80.8373 90.5424 77.6689C92.465 70.0437 96.9461 65.2798 105.1 66.6955C113.255 68.1112 112.813 76.0734 112.581 84.6723C112.349 93.2712 113.232 102.327 111.803 106.582Z" fill="#B25E47"/>
<path d="M101.396 85.1516C100.783 93.1438 97.2667 101.833 85.3047 100.439C85.8807 96.5819 86.958 91.9753 88.2971 86.5149L101.396 85.1516Z" fill="#914839"/>
<path d="M86.2998 114.065C86.6364 121.855 86.7187 124.289 87.4743 124.701C88.2299 125.113 91.6561 126.042 92.5763 125.45C93.4964 124.858 98.7555 116.177 98.7555 116.177C98.7555 116.177 92.494 111.885 86.2998 114.065Z" fill="#683F1D"/>
<path d="M92.0812 121.757C93.166 135.277 95.4551 167.448 95.7843 169.95C96.1135 172.452 85.872 183.036 84.8397 181.725C83.8073 180.414 78.5781 170.759 78.5781 167.898C78.5781 165.036 88.049 121.21 88.049 121.21L92.0812 121.757Z" fill="#683F1D"/>
<path d="M91.8956 112.529C97.626 111.937 110.785 103.72 112.498 102.612C114.211 101.503 116.493 109.098 116.298 110.596C116.104 112.094 99.4214 123.15 99.4214 123.15C99.4214 123.15 95.277 114.753 91.6038 114.656C87.9307 114.559 82.4322 123.15 82.4322 123.15C75.4599 116.866 80.0981 106.05 84.871 104.312C84.871 104.312 89.5765 112.768 91.8956 112.529Z" fill="#FED81D"/>
<path d="M77.3744 225.648L75.3945 233" stroke="#83ADDF" stroke-width="0.75" stroke-linecap="round" stroke-linejoin="round"/>
<path d="M119.57 54.7037C118.64 56.094 117.374 57.2258 115.889 57.9933C114.404 58.7609 112.75 59.1392 111.079 59.0931C105.094 58.9957 99.349 54.2468 99.349 54.2468C99.349 54.2468 94.1123 48.9287 94.6809 44.2097C94.8553 42.8563 95.5242 41.6154 96.5586 40.7267C101.047 36.6819 108.049 40.4496 110.63 44.779C113.211 49.1084 113.989 49.0785 116.952 49.1159C119.525 49.1459 120.655 52.0821 119.57 54.7037Z" fill="#604730"/>
<path d="M111.079 59.093C105.094 58.9957 99.349 54.2468 99.349 54.2468C99.349 54.2468 94.1123 48.9286 94.6809 44.2097C100.553 42.8165 107.698 44.4644 112.194 49.0485C115.777 52.7038 113.51 56.5613 111.079 59.093Z" fill="#473526"/>
<path d="M102.721 50.6142C99.1448 46.0076 99.7732 40.7494 103.566 39.3787" stroke="#896442" stroke-width="0.75" stroke-linecap="round" stroke-linejoin="round"/>
<path d="M107.486 53.318C103.91 48.719 104.539 43.4533 108.332 42.0825" stroke="#896442" stroke-width="0.75" stroke-linecap="round" stroke-linejoin="round"/>
<path d="M115.618 64.5012C114.691 66.5595 113.642 68.5604 112.476 70.4934C110.892 73.1966 109.075 75.7556 107.045 78.1411C103.305 82.4705 98.4271 86.2681 92.7491 86.755C79.1188 87.9235 79.7547 78.2834 80.1886 75.3622C80.1886 75.2947 80.1886 75.2348 80.1886 75.1749C80.1886 75.115 83.1435 69.0853 86.4277 63.0855C88.0734 59.9926 89.8865 56.992 91.8588 54.0971C96.2352 47.9849 102.272 46.7266 108.242 49.2508C114.212 51.7751 114.885 55.4004 115.618 64.5012Z" fill="#B25E47"/>
<path d="M112.475 70.5455C110.889 73.2305 109.072 75.7719 107.044 78.1407H106.655C105.524 78.1425 104.415 77.8272 103.453 77.2305C102.492 76.6337 101.716 75.7794 101.214 74.7642C100.713 73.7489 100.505 72.6133 100.614 71.486C100.724 70.3586 101.147 69.2844 101.834 68.385C102.522 67.4857 103.448 66.7971 104.506 66.3971C105.564 65.9972 106.714 65.9019 107.823 66.122C108.933 66.3422 109.959 66.869 110.785 67.6428C111.611 68.4166 112.205 69.4066 112.498 70.5006L112.475 70.5455Z" fill="#A0503D"/>
<path d="M88.5382 68.1941C88.5382 70.1178 87.7755 71.9628 86.4176 73.3238C85.0598 74.6847 83.2179 75.4503 81.2966 75.4523C80.9183 75.4527 80.5405 75.4226 80.167 75.3624C80.167 75.295 80.167 75.235 80.167 75.1751C80.167 75.1152 83.1219 69.0855 86.4061 63.0857C87.765 64.4382 88.532 66.2756 88.5382 68.1941Z" fill="#A0503D"/>
<path d="M117.391 70.9128L115.349 72.7929C112.013 75.9388 111.294 76.7178 111.294 76.7178C109.432 72.0438 108.998 64.1939 112.521 58.4039C116.045 52.6139 120.234 52.4116 122.441 54.2018C122.66 54.3777 122.836 54.6004 122.957 54.8535C124.551 57.8122 122.389 66.2688 117.391 70.9128Z" fill="#604730"/>
<path d="M122.957 54.8759C118.843 56.0145 115.372 62.7633 115.349 72.8153C112.013 75.9612 111.294 76.7402 111.294 76.7402C109.432 72.0663 108.998 64.2164 112.521 58.4264C116.045 52.6363 120.234 52.4341 122.441 54.2243C122.66 54.4002 122.836 54.6228 122.957 54.8759Z" fill="#473526"/>
<path d="M108.654 78.7851C111.123 82.2232 119.001 80.2832 119.509 75.2422C120.018 70.2011 115.552 67.4747 111.594 69.7442C107.637 72.0138 107.914 77.7589 108.654 78.7851Z" fill="#B25E47"/>
<path d="M116.681 54.0669C117.429 58.1042 120.698 61.3625 122.755 61.9168" stroke="#896442" stroke-width="0.75" stroke-linecap="round" stroke-linejoin="round"/>
<path d="M113.232 57.3552C113.981 60.9506 116.569 65.707 121.574 65.3699" stroke="#896442" stroke-width="0.75" stroke-linecap="round" stroke-linejoin="round"/>
<path d="M92.0088 59.6027C92.0088 59.8116 92.0706 60.0158 92.1866 60.1896C92.3025 60.3633 92.4673 60.4987 92.6601 60.5786C92.8528 60.6585 93.0649 60.6795 93.2696 60.6387C93.4742 60.5979 93.6622 60.4973 93.8097 60.3496C93.9573 60.2019 94.0578 60.0137 94.0985 59.8088C94.1392 59.6039 94.1183 59.3915 94.0384 59.1985C93.9586 59.0055 93.8234 58.8405 93.6499 58.7244C93.4764 58.6083 93.2724 58.5464 93.0638 58.5464C92.784 58.5464 92.5156 58.6577 92.3178 58.8558C92.1199 59.0539 92.0088 59.3225 92.0088 59.6027Z" fill="#683F1D"/>
<path d="M100.081 63.483C100.664 63.483 101.136 63.0101 101.136 62.4267C101.136 61.8433 100.664 61.3704 100.081 61.3704C99.4987 61.3704 99.0264 61.8433 99.0264 62.4267C99.0264 63.0101 99.4987 63.483 100.081 63.483Z" fill="#683F1D"/>
<path d="M112.192 71.5569C112.267 72.7104 109.042 76.92 108.766 78.2308C107.801 82.8599 107.748 85.1669 102.601 88.59C96.9608 92.3351 86.1433 95.6983 80.6823 91.3689C78.5652 89.6985 77.3906 86.4777 77.3906 82.71C77.4473 79.7897 78.0844 76.9099 79.2648 74.2387C80.4452 71.5676 82.1452 69.1587 84.2656 67.1526C83.5976 69.6055 82.7781 72.0146 81.8119 74.3658C82.9019 72.8914 84.0784 71.4832 85.3354 70.1487C86.8203 69.4519 88.4565 69.1402 90.0933 69.2424C91.0284 69.4971 96.5119 71.7741 96.7289 72.8153C96.9458 73.8564 96.078 77.4368 97.2301 77.6915C98.3822 77.9462 103.432 77.3994 104.711 76.5754C105.99 75.7515 109.439 70.3285 109.761 69.4971C109.963 68.9802 110.815 69.4521 111.451 70.1637C111.837 70.54 112.095 71.0269 112.192 71.5569Z" fill="#604730"/>
<path d="M116.42 74.7328C115.141 71.7366 111.864 71.8265 110.076 74.2234" stroke="#934735" stroke-width="0.75" stroke-linecap="round" stroke-linejoin="round"/>
<path d="M110.936 73.3325C114.467 72.4559 116.023 77.685 111.31 77.6775" stroke="#934735" stroke-width="0.75" stroke-linecap="round" stroke-linejoin="round"/>
<path d="M91.0502 53.8872C90.7884 55.3853 97.6933 56.6662 97.7831 54.4265C97.8729 52.1869 91.3345 52.2918 91.0502 53.8872Z" fill="#604730"/>
<path d="M108.063 56.9883C108.011 58.4863 100.993 58.3665 101.33 56.1494C101.667 53.9322 108.123 55.3778 108.063 56.9883Z" fill="#604730"/>
<path d="M90.9092 73.2348C95.1883 73.9239 97.081 73.2348 98.1956 71.4221" stroke="#934735" stroke-width="0.75" stroke-linecap="round" stroke-linejoin="round"/>
<path d="M89.915 66.7033C91.3364 63.8045 93.2216 62.7559 95.0844 62.5462C95.9667 62.4234 96.7873 62.0238 97.4285 61.4047C98.0697 60.7856 98.4983 59.9789 98.6528 59.1006" stroke="#934735" stroke-width="0.75" stroke-linecap="round" stroke-linejoin="round"/>
<path d="M112.192 71.557C112.267 72.7105 109.042 76.9201 108.766 78.2309C107.801 82.86 107.748 85.167 102.601 88.5901C96.9608 92.3352 86.1433 95.6984 80.6823 91.369C78.5652 89.6986 77.3906 86.4778 77.3906 82.7101C83.3754 87.8485 92.1505 88.3953 97.5368 86.8523C105.137 84.6651 109.783 74.5457 111.466 70.1638C111.846 70.5421 112.099 71.0288 112.192 71.557Z" fill="#473526"/>
<path d="M78.333 76.7402C86.2404 83.4815 97.1326 78.1484 97.7835 77.6765" stroke="#896442" stroke-width="0.75" stroke-linecap="round" stroke-linejoin="round"/>
<path d="M77.4355 83.9085C84.0188 87.369 94.4248 88.3278 102.212 77.3395" stroke="#896442" stroke-width="0.75" stroke-linecap="round" stroke-linejoin="round"/>
<path d="M85.6201 93.294C87.2435 90.957 91.5076 89.9384 95.9812 88.695C104.689 86.2606 106.028 82.6502 106.873 74.1038" stroke="#896442" stroke-width="0.75" stroke-linecap="round" stroke-linejoin="round"/>
<path d="M111.959 213.14C111.956 214.74 111.604 216.32 110.927 217.769C110.066 219.587 108.835 221.204 107.313 222.518C103.289 226.098 97.0195 228.398 89.9725 228.398C86.0159 228.429 82.0933 227.665 78.4369 226.151C74.9947 224.791 72.0286 222.446 69.9086 219.409C68.667 217.556 67.9959 215.379 67.9785 213.147C67.9782 212.506 68.0383 211.867 68.1581 211.237C69.0632 206.166 73.5593 201.867 79.8358 199.605C83.0905 198.451 86.5197 197.868 89.9725 197.882C94.4832 197.849 98.939 198.875 102.982 200.878C104.72 201.744 106.323 202.86 107.74 204.189C110.395 206.676 111.959 209.777 111.959 213.14Z" fill="#A7CAF0"/>
<path d="M110.926 217.769C110.065 219.586 108.835 221.204 107.313 222.517C103.288 226.098 97.0191 228.397 89.9721 228.397C86.0155 228.428 82.0929 227.664 78.4365 226.15C74.9943 224.79 72.0282 222.446 69.9082 219.409C85.6032 223.506 102.555 220.053 110.926 217.769Z" fill="#93BEE5"/>
<path d="M160.636 154.221C157.255 159.763 145.786 175.134 134.498 189.807C124.974 202.174 115.578 214.039 111.269 219.08C110.122 220.41 108.789 221.568 107.312 222.518C104.656 224.202 101.69 225.334 98.5896 225.849C95.4887 226.364 92.3162 226.25 89.2603 225.514C84.8914 224.413 81.1061 221.903 79.0413 217.926C78.1465 216.181 77.6026 214.278 77.4404 212.323C77.1112 208.758 78.0015 204.421 79.8343 199.59C83.298 190.496 90.0982 179.703 98.2748 169.141C99.2773 167.846 100.31 166.55 101.349 165.261C102.95 163.264 104.591 161.306 106.272 159.389C106.855 158.707 107.439 158.041 108.037 157.367C108.501 156.842 108.965 156.318 109.436 155.801L111.045 154.026L111.135 153.928L112.773 152.168C113.888 150.977 115.017 149.801 116.132 148.655L117.628 147.157C118.174 146.603 118.728 146.049 119.281 145.509C119.304 145.483 119.329 145.457 119.356 145.434C120.523 144.281 121.688 143.162 122.85 142.079L123.007 141.936C126.943 138.216 131.082 134.715 135.403 131.45C139.966 128.064 144.088 125.615 147.425 124.439C153.05 122.462 158.197 124.858 161.347 129.555C165.394 135.48 166.179 145.142 160.636 154.221Z" fill="#A7CAF0"/>
<path d="M146.932 173.441C143.056 178.617 138.77 184.264 134.498 189.807C124.975 202.174 115.579 214.038 111.27 219.079C110.123 220.41 108.79 221.568 107.312 222.517" stroke="#83ADDF" stroke-width="0.75" stroke-linecap="round" stroke-linejoin="round"/>
<path d="M79.834 199.597C83.2977 190.504 90.0979 179.71 98.2745 169.149C105.769 159.494 113.998 150.434 122.887 142.049" stroke="#83ADDF" stroke-width="0.75" stroke-linecap="round" stroke-linejoin="round"/>
<path d="M134.124 139.502C130.189 137.255 126.314 138.094 119.289 145.494" stroke="#83ADDF" stroke-width="0.75" stroke-linecap="round" stroke-linejoin="round"/>
<path d="M161.384 129.525C159.656 128.79 157.848 128.257 155.998 127.937C149.385 126.761 142.577 128.311 135.44 131.42C140.004 128.034 144.126 125.585 147.462 124.409C153.088 122.432 158.235 124.828 161.384 129.525Z" fill="#C3DCF8"/>
<path d="M134.499 189.807C124.976 202.174 115.58 214.039 111.271 219.08C110.124 220.41 108.791 221.568 107.313 222.518C104.658 224.202 101.692 225.335 98.5912 225.849C95.4904 226.364 92.3179 226.25 89.2619 225.514C84.893 224.413 81.1077 221.904 79.043 217.926C86.0601 220.66 93.0323 220.668 98.0146 218.151C100.789 216.805 102.97 214.482 104.142 211.627C105.181 209.056 106.383 206.554 107.74 204.137C115.849 189.845 126.936 184.632 134.499 189.807Z" fill="#93BEE5"/>
<path d="M54.3487 128.476C53.9896 126.461 60.7449 124.312 65.9965 123.712L66.984 132.603C66.984 132.603 55.5905 135.472 54.3487 128.476Z" fill="#93BEE5"/>
<path d="M64.9045 123.151C62.1739 112.941 62.1066 96.4178 63.0417 94.0808C63.9768 91.7438 65.862 92.6202 66.9842 92.6876C68.1063 92.755 68.63 89.7514 72.4228 89.7514C72.4228 89.7514 72.6323 85.9612 75.2581 85.5268C75.2581 85.5268 74.2557 80.0064 78.6769 80.8903C79.6794 81.0925 78.6769 87.2196 81.2204 95.871C81.3625 96.3578 86.7189 92.5153 87.9532 91.6389C89.9357 90.2083 93.7734 89.7364 91.2748 93.9385C89.7786 96.4927 87.2875 100.53 85.5519 103.062C82.1039 108.236 80.316 114.34 80.4274 120.559L64.9045 123.151Z" fill="#B25E47"/>
<path d="M62.5255 99.0993C62.4881 97.4115 62.6615 95.7256 63.0417 94.0808C63.9693 91.7513 65.862 92.6202 66.9842 92.6876C68.1063 92.755 68.6299 89.7514 72.4228 89.7514C72.4228 89.7514 72.6323 85.9612 75.2581 85.5268C75.2581 85.5268 74.2556 80.0064 78.6769 80.8903C79.6793 81.0925 78.6768 87.2196 81.2204 95.871C81.3625 96.3578 86.7189 92.5153 87.9532 91.6389C89.9357 90.2083 93.7734 89.7364 91.2748 93.9385C90.5267 95.2118 89.5168 96.8597 88.4919 98.5076" stroke="#934735" stroke-width="0.75" stroke-linecap="round" stroke-linejoin="round"/>
<path d="M72.423 89.7512C72.4075 90.4552 72.4502 91.1593 72.5506 91.8563" stroke="#934735" stroke-width="0.75" stroke-linecap="round" stroke-linejoin="round"/>
<path d="M75.2588 85.5266C75.5808 87.377 76.0526 89.0926 76.0526 89.0926" stroke="#934735" stroke-width="0.75" stroke-linecap="round" stroke-linejoin="round"/>
<path d="M60.1016 118.934L61.2911 135.712C61.2911 135.712 83.083 131.967 82.7539 131.48C82.4247 130.993 81.8562 117.248 81.8562 117.248L60.1016 118.934Z" fill="white"/>
<path d="M102.862 200.878C102.862 201.312 102.839 201.747 102.794 202.181C102.794 202.511 102.75 202.84 102.72 203.17C102.723 203.235 102.723 203.3 102.72 203.365C102.72 203.739 102.645 204.114 102.6 204.473C102.503 205.312 102.376 206.144 102.218 206.96C101.538 210.954 100.073 214.772 97.9094 218.196C95.8469 221.518 92.7813 224.097 89.1568 225.559C85.7262 226.819 82.0028 227.048 78.444 226.218H78.3318C71.1651 224.667 66.886 216.675 64.2527 207.537C61.8513 199.185 60.8189 189.875 60.2279 183.635C58.9711 170.527 54.2432 128.551 54.2432 128.551C57.5871 130.229 87.5109 123.233 87.5109 123.233C87.5109 123.233 93.6603 147.652 98.1788 169.231C100.603 180.804 102.563 191.567 102.847 197.305C102.884 198.436 102.899 199.642 102.862 200.878Z" fill="#A7CAF0"/>
<path d="M64.238 207.455C61.8366 199.103 60.8043 189.792 60.2133 183.553C58.9565 170.445 54.2285 128.469 54.2285 128.469" stroke="#83ADDF" stroke-width="0.75" stroke-linecap="round" stroke-linejoin="round"/>
<path d="M87.4893 123.151C87.4893 123.151 93.6386 147.569 98.1571 169.149C100.581 180.721 102.541 191.485 102.825 197.223C102.885 198.436 102.9 199.642 102.825 200.841C102.753 203.029 102.503 205.209 102.077 207.357" stroke="#83ADDF" stroke-width="0.75" stroke-linecap="round" stroke-linejoin="round"/>
<path d="M97.895 218.106C95.8325 221.428 92.7668 224.007 89.1423 225.469C85.7118 226.728 81.9884 226.958 78.4296 226.128H78.3174C71.1506 224.577 66.8716 216.585 64.2383 207.447C65.4188 208.78 66.6884 210.031 68.0386 211.192C71.2552 214.03 74.9377 216.291 78.9233 217.873C85.9405 220.645 92.9127 220.652 97.895 218.106Z" fill="#93BEE5"/>
<ellipse cx="28.9562" cy="29" rx="28.9562" ry="29" fill="#FFE05C"/>
<path d="M18.5722 18.6044C18.7632 18.4128 18.9901 18.2608 19.2399 18.1571C19.4896 18.0534 19.7573 18 20.0276 18C20.298 18 20.5657 18.0534 20.8154 18.1571C21.0652 18.2608 21.292 18.4128 21.4831 18.6044L28.9525 26.0823L36.4218 18.6044C36.613 18.413 36.8399 18.2611 37.0896 18.1575C37.3393 18.0539 37.607 18.0006 37.8773 18.0006C38.1476 18.0006 38.4152 18.0539 38.6649 18.1575C38.9147 18.2611 39.1416 18.413 39.3327 18.6044C39.5238 18.7958 39.6754 19.023 39.7789 19.2731C39.8823 19.5232 39.9355 19.7913 39.9355 20.062C39.9355 20.3327 39.8823 20.6008 39.7789 20.8509C39.6754 21.101 39.5238 21.3282 39.3327 21.5196L31.8661 29.0003L39.3327 36.481C39.7187 36.8676 39.9355 37.3919 39.9355 37.9386C39.9355 38.4853 39.7187 39.0096 39.3327 39.3962C38.9467 39.7828 38.4232 40 37.8773 40C37.3314 40 36.8078 39.7828 36.4218 39.3962L28.9525 31.9183L21.4831 39.3962C21.0971 39.7828 20.5735 40 20.0276 40C19.4818 40 18.9582 39.7828 18.5722 39.3962C18.1862 39.0096 17.9694 38.4853 17.9694 37.9386C17.9694 37.3919 18.1862 36.8676 18.5722 36.481L26.0388 29.0003L18.5722 21.5196C18.3809 21.3283 18.2291 21.1011 18.1256 20.851C18.022 20.6009 17.9688 20.3328 17.9688 20.062C17.9688 19.7912 18.022 19.5231 18.1256 19.273C18.2291 19.0229 18.3809 18.7957 18.5722 18.6044Z" fill="#F04438"/>
<ellipse cx="52.9163" cy="58" rx="4.99245" ry="5" fill="#FFE05C"/>
<ellipse cx="63.8998" cy="66" rx="2.99547" ry="3" fill="#FFE05C"/>
<line x1="5.11719" y1="232.5" x2="164.876" y2="232.5" stroke="black"/>
</svg>
