<svg width="177" height="183" viewBox="0 0 177 183" fill="none" xmlns="http://www.w3.org/2000/svg">
<g clip-path="url(#clip0_74_7240)">
<path d="M126.937 75.5693C126.289 75.9661 125.621 76.3299 124.937 76.6593C114.047 81.8893 108.227 80.3693 107.137 75.2193C106.047 70.0693 94.6467 73.9593 93.9767 64.8493C93.3067 55.7393 97.3467 52.7893 96.5867 48.1393C96.5867 48.1393 97.1167 46.9393 97.9367 45.5293C99.6367 42.5293 102.617 38.6793 104.837 42.6093C108.127 48.4293 110.167 47.8093 116.237 48.4893C122.307 49.1693 125.097 53.3793 123.237 56.4193C120.977 60.1093 122.177 61.7093 128.807 62.3193C134.767 62.8793 135.677 70.3293 126.937 75.5693Z" fill="#DD6819"/>
<path d="M126.937 75.5693C126.289 75.9661 125.621 76.3299 124.937 76.6593C114.047 81.8893 108.227 80.3693 107.137 75.2193C106.047 70.0693 94.6467 73.9593 93.9767 64.8493C93.3067 55.7393 97.3467 52.7893 96.5867 48.1393C96.5867 48.1393 97.1167 46.9393 97.9367 45.5293C105.937 47.9893 108.207 52.1793 107.427 55.8093C106.427 60.4393 110.497 66.5093 120.607 65.6793C125.687 65.2493 126.947 70.3893 126.937 75.5693Z" fill="#CC5E0D"/>
<path d="M104.587 68.6194C104.587 68.6194 88.697 84.8593 84.987 82.4393C81.277 80.0193 79.827 70.8293 80.247 67.7293C80.387 66.7293 80.667 64.8293 80.977 62.7293C81.627 58.4993 82.437 53.3593 82.577 52.2593C83.017 43.2593 97.767 35.4993 101.987 45.4793C101.375 53.2878 102.258 61.1414 104.587 68.6194Z" fill="#FEBD9D"/>
<path d="M80.9971 62.7293C81.6471 58.4993 82.4571 53.3593 82.5971 52.2593L92.2071 48.9093C93.2171 57.1093 89.0471 61.7793 80.9971 62.7293Z" fill="#F4A789"/>
<path d="M106.218 36.8793C102.398 44.2193 73.0075 35.8793 73.0075 35.8793C68.2375 34.4893 65.8475 32.5993 66.0075 29.7193C66.1675 26.8393 70.6575 26.7193 69.4975 23.9593C68.9059 22.6197 68.5669 21.1822 68.4975 19.7193C68.4075 17.0893 69.4075 14.0493 73.2675 11.5993C80.0675 7.27934 89.4075 13.0793 89.4075 13.0793C89.4075 13.0793 93.6775 9.50934 101.408 13.4893C105.328 15.4893 107.478 19.5893 108.148 24.0893C108.808 28.4498 108.135 32.9079 106.218 36.8793Z" fill="#DD6819"/>
<path d="M106.218 36.8793C102.398 44.2193 73.0075 35.8793 73.0075 35.8793C68.2375 34.4893 65.8475 32.5993 66.0075 29.7193C66.1675 26.8393 70.6575 26.7193 69.4975 23.9593C68.9059 22.6197 68.5669 21.1822 68.4975 19.7193C74.8275 13.0493 89.2975 12.2193 90.8575 18.4593C92.6275 25.5393 95.9975 36.8093 108.158 24.0893C108.815 28.4508 108.139 32.909 106.218 36.8793Z" fill="#CC5E0D"/>
<path d="M88.3975 16.8693C93.9275 13.1193 99.0775 15.9493 100.517 20.0893C102.607 26.0893 95.5175 32.3793 102.607 37.7393" stroke="#FF79A0" stroke-width="0.75" stroke-linecap="round" stroke-linejoin="round"/>
<path d="M72.2373 20.8293C72.7373 15.2093 81.4173 9.82934 89.4373 13.0493" stroke="#FF79A0" stroke-width="0.75" stroke-linecap="round" stroke-linejoin="round"/>
<path d="M102.008 45.5194C102.008 45.5194 94.0079 53.3294 85.1879 55.8494C76.5679 58.3394 69.1879 53.1394 69.8979 40.7294C69.8979 40.5294 69.8979 40.3194 69.8979 40.1194C70.0179 38.6094 70.1979 37.1194 70.4379 35.7094C72.2879 25.0194 77.8479 17.2794 87.0779 20.1694C89.9079 21.0494 87.2579 31.0494 89.1579 35.5394C89.2716 35.819 89.4123 36.087 89.5779 36.3394C90.2282 37.2488 91.0805 37.995 92.0679 38.5194C95.1979 40.2394 99.4479 39.8594 100.828 37.2194C102.828 33.3894 108.258 31.5494 110.148 37.9694C111.518 42.5794 106.478 46.7494 102.008 45.5194Z" fill="#FEBD9D"/>
<path d="M92.0676 38.5193C91.1774 39.5794 90.0109 40.3721 88.6976 40.8093C86.1076 41.8093 83.6076 41.4793 83.1176 40.1593C82.6276 38.8393 84.3476 36.9993 86.9376 36.0493C87.6619 35.7773 88.418 35.5992 89.1876 35.5193C89.3013 35.799 89.442 36.0669 89.6076 36.3193C90.247 37.2325 91.0889 37.9855 92.0676 38.5193Z" fill="#F4AF90"/>
<path d="M72.5877 40.0993C72.1377 40.7593 71.1377 40.9393 69.9277 40.6893C69.9277 40.4893 69.9277 40.2793 69.9277 40.0793C70.0477 38.5693 70.2277 37.0793 70.4677 35.6693C72.3377 37.1693 73.2677 39.0393 72.5877 40.0993Z" fill="#F4AF90"/>
<path d="M74.1875 33.0993C74.1875 33.3189 74.2526 33.5335 74.3746 33.716C74.4965 33.8986 74.6699 34.0408 74.8727 34.1248C75.0755 34.2089 75.2987 34.2308 75.514 34.188C75.7294 34.1452 75.9271 34.0395 76.0824 33.8842C76.2376 33.729 76.3433 33.5312 76.3862 33.3159C76.429 33.1006 76.407 32.8774 76.323 32.6746C76.239 32.4717 76.0967 32.2984 75.9142 32.1764C75.7316 32.0544 75.517 31.9893 75.2975 31.9893C75.0031 31.9893 74.7208 32.1063 74.5126 32.3145C74.3044 32.5226 74.1875 32.805 74.1875 33.0993Z" fill="#683F1D"/>
<path d="M80.3379 34.7794C80.336 35.0017 80.4002 35.2196 80.5225 35.4053C80.6448 35.591 80.8196 35.7361 81.0247 35.8221C81.2297 35.9081 81.4558 35.9312 81.6739 35.8883C81.8921 35.8454 82.0926 35.7385 82.2498 35.5813C82.4071 35.424 82.514 35.2236 82.5569 35.0054C82.5997 34.7872 82.5767 34.5612 82.4907 34.3561C82.4047 34.1511 82.2596 33.9762 82.0739 33.8539C81.8882 33.7316 81.6703 33.6674 81.4479 33.6694C81.1535 33.6694 80.8712 33.7863 80.6631 33.9945C80.4549 34.2026 80.3379 34.485 80.3379 34.7794Z" fill="#683F1D"/>
<path d="M102.208 40.8493C103.398 37.8493 106.018 36.4193 107.988 37.8493" stroke="#EF8A66" stroke-width="0.75" stroke-linecap="round" stroke-linejoin="round"/>
<path d="M102.588 39.9793C105.768 37.5493 107.968 42.9793 102.868 42.9793" stroke="#EF8A66" stroke-width="0.75" stroke-linecap="round" stroke-linejoin="round"/>
<path d="M71.2371 27.7293C70.9371 29.1693 77.1471 31.1593 77.7371 28.2493C78.1571 26.1593 71.5871 26.1593 71.2371 27.7293Z" fill="#DD6819"/>
<path d="M81.4972 28.6594C80.8172 31.1894 87.8772 32.5094 88.6372 30.7994C89.2872 29.3594 82.2672 25.7994 81.4972 28.6594Z" fill="#DD6819"/>
<path d="M75.5192 43.2111C73.7148 41.4024 74.0771 39.6764 75.846 39.2927C78.0058 38.8243 78.2855 36.7171 77.5942 34.0019" stroke="#EF8A66" stroke-width="0.75" stroke-linecap="round" stroke-linejoin="round"/>
<path d="M77 44.41C79.85 44.76 83.64 43 83.64 43C83.64 43 83.47 48 80.32 48.43C77.17 48.86 77 44.41 77 44.41Z" fill="white" stroke="#EF8A66" stroke-width="0.75" stroke-linecap="round" stroke-linejoin="round"/>
<path d="M69.7706 99.6C69.6806 101.16 69.5006 102.85 69.2206 104.6C67.1006 118.35 59.5106 138.1 51.0906 150.15C49.4031 152.64 47.4555 154.943 45.2806 157.02C38.6506 163.11 28.1106 164.26 20.7506 160.02C18.5287 158.74 16.6355 156.961 15.2209 154.822C13.8062 152.684 12.9091 150.245 12.6006 147.7C12.2809 145.493 12.254 143.254 12.5206 141.04C13.9306 128.55 22.4406 107.15 32.7106 91.71C33.8806 89.93 35.0806 88.23 36.3006 86.64C42.1006 79.04 48.2406 73.74 53.8506 73.16C55.0106 73.0282 56.1851 73.1199 57.3106 73.43C66.6006 76.07 70.6006 83.38 69.7706 99.6Z" fill="#FED81D"/>
<path d="M52.7506 107.05C49.9293 116.744 48.7994 126.852 49.4106 136.93C49.7266 141.378 50.2875 145.804 51.0906 150.19C49.4032 152.68 47.4555 154.983 45.2806 157.06C38.6506 163.15 28.1106 164.3 20.7506 160.06C18.5238 158.776 16.6274 156.991 15.2125 154.845C13.7976 152.699 12.9032 150.252 12.6006 147.7C19.1406 154.7 25.9806 156.21 31.4006 154.44C39.2106 151.92 44.1206 142.64 41.1006 133.13C35.8106 116.43 47.7506 106.88 53.4506 104.13C53.2606 105.07 53.0006 106.06 52.7506 107.05Z" fill="#FCC71F"/>
<path d="M69.7708 99.6C69.6808 101.16 69.5008 102.85 69.2208 104.6C68.2409 103.157 67.4352 101.603 66.8208 99.97C63.9308 92.26 58.7308 87.92 52.9608 86.04C47.5036 84.3393 41.6314 84.5367 36.3008 86.6C42.1008 79 48.2408 73.7 53.8508 73.12C55.0108 72.9882 56.1853 73.0799 57.3108 73.39C66.6008 76.07 70.6008 83.38 69.7708 99.6Z" fill="#FFE05C"/>
<path d="M132.361 134.26C131.81 136.112 131.373 137.995 131.051 139.9C130.961 140.42 130.871 140.9 130.791 141.45C127.571 161.53 127.171 180.14 126.951 182.07C126.731 184 108.751 183.34 95.3808 182.69C90.1708 182.43 83.4408 182.5 77.0808 182.55C67.0808 182.63 58.0808 182.65 57.3608 181.24C56.8808 180.33 55.5908 174.98 54.1908 168.12C53.9708 167.06 53.7408 165.96 53.5208 164.84C53.4108 164.28 53.2908 163.71 53.1908 163.14C53.0908 162.57 52.9408 161.83 52.8108 161.14C52.6808 160.45 52.5508 159.74 52.4108 159.03C52.1308 157.47 51.8408 155.88 51.5708 154.31C51.3008 152.74 51.0508 151.19 50.8108 149.67C50.0613 145.277 49.5439 140.848 49.2608 136.4C48.765 126.314 50.0029 116.218 52.9208 106.55C53.0008 106.3 53.0708 106.06 53.1308 105.81C53.2408 105.39 53.3408 104.97 53.4408 104.55C53.5008 104.33 53.5408 104.11 53.5908 103.89C53.6408 103.67 53.6808 103.45 53.7208 103.23C53.7608 103.01 53.8108 102.79 53.8508 102.57C53.8908 102.35 53.9208 102.14 53.9508 101.92C54.0208 101.49 54.0808 101.06 54.1308 100.64C54.2508 99.64 54.3408 98.57 54.3808 97.57C54.3808 97.43 54.3808 97.29 54.3808 97.16C54.3808 96.45 54.3808 95.75 54.3808 95.06C54.3055 91.8751 53.9508 88.7029 53.3208 85.58C52.3208 80.25 50.9108 76.25 51.2508 74.41C51.4108 73.5 52.3608 72.96 54.0008 72.72C54.114 72.7108 54.2277 72.7108 54.3408 72.72C58.3408 72.24 66.2008 73.39 76.8208 75.59C77.0526 73.2026 77.4469 70.8338 78.0008 68.5C78.1053 68.1361 78.3283 67.8174 78.6344 67.5946C78.9406 67.3718 79.3124 67.2575 79.6908 67.27C81.1101 67.3136 82.5241 67.4641 83.9208 67.72C86.4708 67.96 95.1608 66.37 99.6308 64.02C100.532 63.5039 101.523 63.1645 102.551 63.02C104.691 62.83 105.431 64.52 105.711 66.82V67.12C105.711 67.23 105.711 67.34 105.711 67.45C105.711 67.56 105.711 67.87 105.761 68.09C105.811 68.31 105.761 68.42 105.761 68.59V69.27C105.761 69.54 105.761 69.81 105.761 70.09V70.88C105.761 71.01 105.761 71.14 105.761 71.28C105.761 71.42 105.761 71.51 105.761 71.62C105.761 71.73 105.761 71.93 105.761 72.09C105.761 72.25 105.761 72.48 105.761 72.67C105.761 72.86 105.761 73.05 105.761 73.24V73.61C105.761 75.28 105.761 76.54 105.761 76.54C113.831 73.48 126.011 70.36 135.231 76.03C138.234 77.9325 140.719 80.5508 142.461 83.65C142.936 84.4506 143.37 85.275 143.761 86.12C151.641 102.49 137.621 116.41 132.361 134.26Z" fill="#FED81D"/>
<path d="M142.751 83.65C134.961 84.6 126.251 89.65 118.061 99.38C116.791 100.89 115.541 102.5 114.291 104.24C101.141 122.65 78.2312 117.77 69.4112 104.34C68.4521 102.887 67.6668 101.326 67.0712 99.69C64.2512 91.94 59.0712 87.55 53.3512 85.61C52.3512 80.28 50.9412 76.28 51.2812 74.44C51.4412 73.53 52.3912 72.99 54.0312 72.75C54.1444 72.7408 54.2581 72.7408 54.3712 72.75C58.3712 72.27 66.2312 73.42 76.8512 75.62C77.0718 73.2232 77.456 70.8443 78.0012 68.5C78.1057 68.1361 78.3287 67.8174 78.6348 67.5946C78.941 67.3718 79.3128 67.2575 79.6912 67.27C81.1105 67.3136 82.5245 67.4641 83.9212 67.72C86.4712 67.96 95.1612 66.37 99.6312 64.02C100.532 63.5039 101.523 63.1645 102.551 63.02C104.691 62.83 105.431 64.52 105.711 66.82V67.12C105.711 67.23 105.711 67.34 105.711 67.45C105.711 67.56 105.711 67.87 105.761 68.09C105.811 68.31 105.761 68.42 105.761 68.59V69.27C105.761 69.54 105.761 69.81 105.761 70.09V70.88C105.761 71.01 105.761 71.14 105.761 71.28C105.761 71.42 105.761 71.51 105.761 71.62C105.761 71.73 105.761 71.93 105.761 72.09C105.761 72.25 105.761 72.48 105.761 72.67C105.761 72.86 105.761 73.05 105.761 73.24V73.61C105.761 75.28 105.761 76.54 105.761 76.54C113.831 73.48 126.011 70.36 135.231 76.03C138.341 77.8946 140.928 80.516 142.751 83.65Z" fill="#FFE05C"/>
<path d="M54.1412 97.22C54.1162 99.5293 53.8853 101.832 53.4512 104.1C53.2612 105.1 53.0312 106.1 52.7512 107.1C49.9299 116.794 48.8 126.902 49.4112 136.98C49.7272 141.428 50.2881 145.854 51.0912 150.24C51.3412 151.76 51.6112 153.31 51.9012 154.87C52.7612 159.57 53.7412 164.39 54.6612 168.63C56.1412 175.47 57.4812 180.8 57.9712 181.71" stroke="#F7AD2B" stroke-width="0.55" stroke-linecap="round" stroke-linejoin="round"/>
<path d="M131 141.1C128 161.21 127.79 179.83 127.59 181.76C127.39 183.69 109.41 183.22 96.0305 182.76C90.8205 182.55 84.0805 182.7 77.7305 182.76C82.9505 178.41 93.7305 171.27 104.11 175.76C118.48 182.03 125.26 162.24 116.48 160.47C107.7 158.7 107.29 148.73 105.54 140.64L112.72 137.74L131 141.1Z" fill="#FCC71F"/>
<path d="M76.3509 75.79C76.2658 77.3488 76.2658 78.9112 76.3509 80.47" stroke="#F7AD2B" stroke-width="0.55" stroke-linecap="round" stroke-linejoin="round"/>
<path d="M105.521 76.15C105.411 79.21 105.261 81.21 105.261 81.21" stroke="#F7AD2B" stroke-width="0.55" stroke-linecap="round" stroke-linejoin="round"/>
<path d="M83.3213 80.88C87.3213 82.01 93.3213 82.08 96.8113 80.88" stroke="#F7AD2B" stroke-width="0.55" stroke-linecap="round" stroke-linejoin="round"/>
<path d="M168.71 152.93C164.66 158.1 153.02 160.1 144 152.93C141.487 150.893 139.854 147.449 138.15 144.7C137.15 143.13 135.88 140.7 134.45 137.9C133.82 136.65 133.15 135.31 132.45 133.9C128.65 126.14 124.32 116.72 121.53 111.34C120.149 108.62 119.114 105.737 118.45 102.76C118.17 101.58 117.95 100.38 117.78 99.18C115.7 84.68 120.9 69.46 134.95 75.62H135C137.8 76.86 140.78 79.52 143.77 83.03C151.03 91.53 158.32 105.03 162.97 115.2C164.02 117.51 164.97 119.64 165.69 121.51C171.15 135 173.78 146.42 168.71 152.93Z" fill="#FED81D"/>
<path d="M143.8 83C143.308 83.0219 142.818 83.0686 142.33 83.14C134.56 84.14 125.89 89.32 117.81 99.14C115.73 84.64 120.93 69.42 134.98 75.58H135.03C137.83 76.87 140.81 79.53 143.8 83Z" fill="#FFE05C"/>
<path d="M168.711 152.93C164.661 158.1 153.541 159.1 144.521 151.93C146.743 151.217 149.1 151.018 151.411 151.35C160.601 152.69 169.661 148.93 162.601 138.21C156.891 129.54 160.971 118.66 163.001 115.21C164.051 117.52 165.001 119.65 165.721 121.52C171.151 135 173.781 146.42 168.711 152.93Z" fill="#FCC71F"/>
<path d="M167 154.5C167 154.5 155.5 161 146.5 155C142.5 152 138.262 146.358 134.45 137.37C133.82 136.12 133.15 135.28 132.45 133.87C128.65 126.11 124.32 116.69 121.53 111.31C120.149 108.59 119.115 105.707 118.45 102.73C118.17 101.55 117.95 100.35 117.78 99.15" stroke="#F7AD2B" stroke-width="0.55" stroke-linecap="round" stroke-linejoin="round"/>
<path d="M5.65039 79.46C6.07039 76.77 13.6504 74.76 18.0304 73.92L19.7104 84.78C19.7104 84.78 7.62039 83.05 5.65039 79.46Z" fill="#FCC71F"/>
<path d="M12.6808 85.24C11.8208 73.47 11.8208 63.58 11.5708 59.83C11.3208 56.08 11.5108 52.09 15.9208 50.27C15.9208 50.27 15.9208 46.8 20.9208 46.16C20.9208 46.16 20.2908 43.05 24.4908 43.16C24.482 42.8679 24.5411 42.5777 24.6633 42.3123C24.7856 42.0468 24.9677 41.8133 25.1955 41.6302C25.4232 41.447 25.6903 41.3192 25.9758 41.2567C26.2613 41.1942 26.5574 41.1987 26.8408 41.27C27.5694 41.3431 28.2731 41.5753 28.9021 41.9503C29.5311 42.3253 30.07 42.8338 30.4808 43.44C34.1308 42.66 36.1708 46.44 35.9908 49.57C35.8108 52.7 35.5708 56.12 34.0708 59.25C32.5708 62.38 30.6408 67.6 30.6408 67.6L30.7608 74.21C30.7608 74.21 28.0008 95.44 12.6808 85.24Z" fill="#FEBD9D"/>
<path d="M11.5704 59.83C11.3104 56.08 11.5104 52.09 15.9204 50.27C15.9204 50.27 15.9204 46.8 20.9204 46.16C20.9204 46.16 20.2904 43.05 24.4904 43.16C24.4816 42.8679 24.5406 42.5777 24.6629 42.3123C24.7852 42.0468 24.9673 41.8133 25.1951 41.6302C25.4228 41.447 25.6899 41.3192 25.9754 41.2567C26.2609 41.1942 26.557 41.1987 26.8404 41.27C27.569 41.3431 28.2727 41.5753 28.9017 41.9503C29.5307 42.3253 30.0696 42.8338 30.4804 43.44C34.1304 42.66 36.1704 46.44 35.9904 49.57" stroke="#FF9B6A" stroke-width="0.55" stroke-linecap="round" stroke-linejoin="round"/>
<path d="M30.5101 43.42C26.7501 45.27 23.9901 48.74 25.1201 50.42C26.2501 52.1 30.5101 49.98 31.1201 49.42" stroke="#FF9B6A" stroke-width="0.55" stroke-linecap="round" stroke-linejoin="round"/>
<path d="M24.2002 43.14C25.6779 43.5391 27.0968 44.1309 28.4202 44.9" stroke="#FF9B6A" stroke-width="0.55" stroke-linecap="round" stroke-linejoin="round"/>
<path d="M21 46.16C22.6484 46.2273 24.2639 46.6431 25.74 47.38" stroke="#FF9B6A" stroke-width="0.55" stroke-linecap="round" stroke-linejoin="round"/>
<path d="M25 55.28C26.26 54.28 27.35 52.65 27 51.09" stroke="#FF9B6A" stroke-width="0.55" stroke-linecap="round" stroke-linejoin="round"/>
<path d="M15.9199 50.27C18.9199 49.04 21.9199 47.64 22.9199 49.69C23.9199 51.74 24.3199 58.04 22.9199 58.89C21.5199 59.74 19.1599 59.04 18.7599 57.39C18.3599 55.74 18.0599 53.49 18.0599 53.49" stroke="#FF9B6A" stroke-width="0.55" stroke-linecap="round" stroke-linejoin="round"/>
<path d="M21.4902 59.25C22.7502 60.81 22.3402 66.33 20.9502 68.17" stroke="#FF9B6A" stroke-width="0.55" stroke-linecap="round" stroke-linejoin="round"/>
<path d="M31.4004 154.44C28.9404 159.08 25.4004 161.61 20.7504 160.03C11.8904 157.03 8.37043 148.54 7.08043 140.25C5.73043 131.6 6.79043 123.15 6.75043 121.36C6.66043 117.84 5.69043 79.48 5.69043 79.48C7.23043 80.09 9.55043 80.1 12.3704 79.58C14.5156 79.1554 16.62 78.5465 18.6604 77.76C22.9387 76.129 27.0074 73.9939 30.7804 71.4L30.9504 71.29C30.9504 71.29 31.7104 80.8 32.7504 91.73C33.6304 101.09 34.7504 111.49 35.6604 117.86C37.1604 128.12 36.2504 145.33 31.4004 154.44Z" fill="#FED81D"/>
<path d="M31.4001 154.44C28.9401 159.08 25.4001 161.61 20.7501 160.03C11.8901 157.03 8.37008 148.54 7.08008 140.25C8.65945 142.927 10.52 145.428 12.6301 147.71C19.1401 154.7 26.0001 156.21 31.4001 154.44Z" fill="#FCC71F"/>
<path d="M30.9102 71.27C30.9102 71.27 33.5502 104.05 35.6202 117.84C36.7498 126.611 36.473 135.506 34.8002 144.19" stroke="#F7AD2B" stroke-width="0.55" stroke-linecap="round" stroke-linejoin="round"/>
<path d="M135.657 86.1459C135.525 83.9488 138.823 81.4097 141.911 79.8241L144.117 87.7437C144.117 87.7437 137.001 90.7637 135.657 86.1459Z" fill="#FCC71F"/>
<path d="M142.006 90.9961C141.947 88.1525 141.355 84.8188 141.006 81.9961C140.858 80.9459 136.96 77.3942 136.375 73.2371L135.044 74.0902L133.706 72.8817C133.706 72.8817 133.532 60.2318 135.502 58.2233C137.471 56.2148 138.625 58.3053 139.505 58.4969C140.658 59.7704 140.505 57.4969 141.576 55.6942C142.706 54.8002 144.877 56.9917 145.505 56.9969C146.133 57.002 145.754 54.5196 147.172 53.4601C148.59 52.4006 151.362 55.6934 151.506 55.4961C152.506 53.4961 154.793 52.6038 155.506 54.4963C156.383 56.0398 155.999 58.5007 156.502 62.4984C156.502 63.5007 157.5 53.1552 160.5 53.9998C161 54.1406 159.185 62.2199 159.002 63.9984C158.302 70.8152 156.323 74.9441 156.006 74.9961C156.382 76.231 156.965 77.8242 157.506 78.9961C157.506 78.9961 153.26 95.3322 142.006 90.9961Z" fill="#FEBD9D"/>
<path d="M136.374 73.238V73.238C135.463 74.5583 133.437 73.9068 133.503 72.3041C133.72 67.0157 134.246 59.5032 135.5 58.2242C137.47 56.2157 139.123 58.8062 140.003 58.9978C140.883 59.1894 140.445 56.5891 141.575 55.6951C142.704 54.8011 144.875 56.9927 145.503 56.9978C146.131 57.0029 145.753 54.5205 147.171 53.461C150.003 52.4979 150.503 55.9979 151.503 55.6951C152.504 53.4976 155.505 50.4975 156.004 58.4976L156.503 62.4983C156.669 60.498 158.5 53.5996 160.5 54C161.173 54.1349 159.169 65.1651 158.003 68.4984" stroke="#FF9B6A" stroke-width="0.55" stroke-linecap="round" stroke-linejoin="round"/>
<path d="M136.503 72.9974C136.133 65.7567 137.503 62.9974 137.503 62.9974" stroke="#FF9B6A" stroke-width="0.55" stroke-linecap="round" stroke-linejoin="round"/>
<path d="M155.983 157.28C147.59 157.929 137.234 151.661 136.464 127.878L136.434 126.58C136.017 101.719 135.653 86.1366 135.653 86.1366C144.234 84.7409 152.371 81.362 159.416 76.2687C161.077 89.9692 167.896 125.187 169.302 138.117C169.395 138.966 169.457 139.795 169.483 140.586C169.906 151.747 164.138 156.633 155.983 157.28Z" fill="#FED81D"/>
<path d="M157 157.5C148.607 158.148 137.234 151.661 136.464 127.878C136.464 127.878 145.943 131.044 148.24 140.042C150.536 149.039 157.474 155.968 164.666 145.337C165.941 143.449 167.578 141.834 169.483 140.586C169.906 151.747 165.155 156.853 157 157.5Z" fill="#FCC71F"/>
<path d="M136.435 126.58C136.018 101.719 135.658 86.1459 135.658 86.1459" stroke="#F7AD2B" stroke-width="0.55" stroke-linecap="round" stroke-linejoin="round"/>
<path d="M159.42 76.278C160.929 88.699 166.689 118.867 168.78 133.991" stroke="#F7AD2B" stroke-width="0.55" stroke-linecap="round" stroke-linejoin="round"/>
<line y1="182.5" x2="203" y2="182.5" stroke="black"/>
</g>
<defs>
<clipPath id="clip0_74_7240">
<rect width="177" height="183" fill="white"/>
</clipPath>
</defs>
</svg>
